<?xml version="1.0" encoding="UTF-8" standalone="no"?>
<!DOCTYPE svg PUBLIC "-//W3C//DTD SVG 1.1//EN"
 "http://www.w3.org/Graphics/SVG/1.1/DTD/svg11.dtd">
<!-- Generated by graphviz version 2.40.1 (20161225.0304)
 -->
<!-- Title: md_resposta_envio Pages: 1 -->
<svg width="483pt" height="532pt"
 viewBox="0.00 0.00 483.31 532.00" xmlns="http://www.w3.org/2000/svg" xmlns:xlink="http://www.w3.org/1999/xlink">
<g id="graph0" class="graph" transform="scale(1 1) rotate(0) translate(4 528)">
<title>md_resposta_envio</title>
<polygon fill="#ffffff" stroke="transparent" points="-4,4 -4,-528 479.3086,-528 479.3086,4 -4,4"/>
<!-- md_resposta_envio -->
<g id="node1" class="node">
<title>md_resposta_envio</title>
<polygon fill="#efefef" stroke="transparent" points="81,-225.5 81,-260.5 379,-260.5 379,-225.5 81,-225.5"/>
<polygon fill="none" stroke="#000000" points="81,-225.5 81,-260.5 379,-260.5 379,-225.5 81,-225.5"/>
<text text-anchor="start" x="87.6946" y="-238.3" font-family="Arial Bold" font-size="18.00" fill="#000000">md_resposta_envio</text>
<text text-anchor="start" x="244.7374" y="-238.3" font-family="Arial" font-size="14.00" fill="#000000">    </text>
<text text-anchor="start" x="278.9422" y="-238.3" font-family="Arial" font-size="14.00" fill="#666666">[BASE TABLE]</text>
<polygon fill="none" stroke="#000000" points="81,-195.5 81,-225.5 379,-225.5 379,-195.5 81,-195.5"/>
<text text-anchor="start" x="88" y="-206.9" font-family="Arial" font-size="14.00" fill="#000000">id_resposta </text>
<text text-anchor="start" x="164.244" y="-206.9" font-family="Arial" font-size="14.00" fill="#666666">[bigint(20)]</text>
<polygon fill="none" stroke="#000000" points="81,-165.5 81,-195.5 379,-195.5 379,-165.5 81,-165.5"/>
<text text-anchor="start" x="88" y="-176.9" font-family="Arial" font-size="14.00" fill="#000000">id_procedimento </text>
<text text-anchor="start" x="195.359" y="-176.9" font-family="Arial" font-size="14.00" fill="#666666">[bigint(20)]</text>
<polygon fill="none" stroke="#000000" points="81,-135.5 81,-165.5 379,-165.5 379,-135.5 81,-135.5"/>
<text text-anchor="start" x="88" y="-146.9" font-family="Arial" font-size="14.00" fill="#000000">id_documento </text>
<text text-anchor="start" x="179.8092" y="-146.9" font-family="Arial" font-size="14.00" fill="#666666">[bigint(20)]</text>
<polygon fill="none" stroke="#000000" points="81,-105.5 81,-135.5 379,-135.5 379,-105.5 81,-105.5"/>
<text text-anchor="start" x="88" y="-116.9" font-family="Arial" font-size="14.00" fill="#000000">mensagem </text>
<text text-anchor="start" x="161.1248" y="-116.9" font-family="Arial" font-size="14.00" fill="#666666">[longtext]</text>
<polygon fill="none" stroke="#000000" points="81,-75.5 81,-105.5 379,-105.5 379,-75.5 81,-75.5"/>
<text text-anchor="start" x="88" y="-86.9" font-family="Arial" font-size="14.00" fill="#000000">sin_conclusiva </text>
<text text-anchor="start" x="182.906" y="-86.9" font-family="Arial" font-size="14.00" fill="#666666">[char(1)]</text>
<polygon fill="none" stroke="#000000" points="81,-45.5 81,-75.5 379,-75.5 379,-45.5 81,-45.5"/>
<text text-anchor="start" x="88" y="-56.9" font-family="Arial" font-size="14.00" fill="#000000">dth_resposta </text>
<text text-anchor="start" x="172.8106" y="-56.9" font-family="Arial" font-size="14.00" fill="#666666">[datetime]</text>
<polygon fill="none" stroke="#000000" stroke-width="3" points="79.5,-44.5 79.5,-262.5 380.5,-262.5 380.5,-44.5 79.5,-44.5"/>
</g>
<!-- md_resposta_rel_documento -->
<g id="node2" class="node">
<title>md_resposta_rel_documento</title>
<polygon fill="#efefef" stroke="transparent" points="43,-445.5 43,-480.5 417,-480.5 417,-445.5 43,-445.5"/>
<polygon fill="none" stroke="#000000" points="43,-445.5 43,-480.5 417,-480.5 417,-445.5 43,-445.5"/>
<text text-anchor="start" x="49.6858" y="-458.3" font-family="Arial Bold" font-size="18.00" fill="#000000">md_resposta_rel_documento</text>
<text text-anchor="start" x="282.7462" y="-458.3" font-family="Arial" font-size="14.00" fill="#000000">    </text>
<text text-anchor="start" x="316.951" y="-458.3" font-family="Arial" font-size="14.00" fill="#666666">[BASE TABLE]</text>
<polygon fill="none" stroke="#000000" points="43,-415.5 43,-445.5 417,-445.5 417,-415.5 43,-415.5"/>
<text text-anchor="start" x="50" y="-426.9" font-family="Arial" font-size="14.00" fill="#000000">id_resposta    </text>
<text text-anchor="start" x="156.5582" y="-426.9" font-family="Arial" font-size="14.00" fill="#666666">[bigint(20)]</text>
<polygon fill="none" stroke="#000000" points="43,-385.5 43,-415.5 417,-415.5 417,-385.5 43,-385.5"/>
<text text-anchor="start" x="50" y="-396.9" font-family="Arial" font-size="14.00" fill="#000000">id_documento    </text>
<text text-anchor="start" x="172.1234" y="-396.9" font-family="Arial" font-size="14.00" fill="#666666">[bigint(20)]</text>
</g>
<!-- md_resposta_rel_documento&#45;&gt;md_resposta_envio -->
<g id="edge1" class="edge">
<title>md_resposta_rel_documento:id_resposta&#45;&gt;md_resposta_envio:id_resposta</title>
<path fill="none" stroke="#000000" d="M427.222,-429.6591C513.3996,-414.8888 474.6403,-210.5 379,-210.5"/>
<polygon fill="#000000" stroke="#000000" points="426.9663,-429.68 416.631,-426.0152 421.9832,-430.09 417,-430.5 417,-430.5 417,-430.5 421.9832,-430.09 417.369,-434.9848 426.9663,-429.68 426.9663,-429.68"/>
</g>
</g>
</svg>
