<?xml version="1.0" encoding="UTF-8" standalone="no"?>
<!DOCTYPE svg PUBLIC "-//W3C//DTD SVG 1.1//EN"
 "http://www.w3.org/Graphics/SVG/1.1/DTD/svg11.dtd">
<!-- Generated by graphviz version 2.40.1 (20161225.0304)
 -->
<!-- Title: md_resposta_rel_documento Pages: 1 -->
<svg width="486pt" height="532pt"
 viewBox="0.00 0.00 486.31 532.00" xmlns="http://www.w3.org/2000/svg" xmlns:xlink="http://www.w3.org/1999/xlink">
<g id="graph0" class="graph" transform="scale(1 1) rotate(0) translate(4 528)">
<title>md_resposta_rel_documento</title>
<polygon fill="#ffffff" stroke="transparent" points="-4,4 -4,-528 482.3086,-528 482.3086,4 -4,4"/>
<!-- md_resposta_rel_documento -->
<g id="node1" class="node">
<title>md_resposta_rel_documento</title>
<polygon fill="#efefef" stroke="transparent" points="46,-442.5 46,-477.5 420,-477.5 420,-442.5 46,-442.5"/>
<polygon fill="none" stroke="#000000" points="46,-442.5 46,-477.5 420,-477.5 420,-442.5 46,-442.5"/>
<text text-anchor="start" x="52.6858" y="-455.3" font-family="Arial Bold" font-size="18.00" fill="#000000">md_resposta_rel_documento</text>
<text text-anchor="start" x="285.7462" y="-455.3" font-family="Arial" font-size="14.00" fill="#000000">    </text>
<text text-anchor="start" x="319.951" y="-455.3" font-family="Arial" font-size="14.00" fill="#666666">[BASE TABLE]</text>
<polygon fill="none" stroke="#000000" points="46,-412.5 46,-442.5 420,-442.5 420,-412.5 46,-412.5"/>
<text text-anchor="start" x="53" y="-423.9" font-family="Arial" font-size="14.00" fill="#000000">id_resposta </text>
<text text-anchor="start" x="129.244" y="-423.9" font-family="Arial" font-size="14.00" fill="#666666">[bigint(20)]</text>
<polygon fill="none" stroke="#000000" points="46,-382.5 46,-412.5 420,-412.5 420,-382.5 46,-382.5"/>
<text text-anchor="start" x="53" y="-393.9" font-family="Arial" font-size="14.00" fill="#000000">id_documento </text>
<text text-anchor="start" x="144.8092" y="-393.9" font-family="Arial" font-size="14.00" fill="#666666">[bigint(20)]</text>
<polygon fill="none" stroke="#000000" stroke-width="3" points="44.5,-381.5 44.5,-479.5 421.5,-479.5 421.5,-381.5 44.5,-381.5"/>
</g>
<!-- md_resposta_envio -->
<g id="node2" class="node">
<title>md_resposta_envio</title>
<polygon fill="#efefef" stroke="transparent" points="84,-222.5 84,-257.5 382,-257.5 382,-222.5 84,-222.5"/>
<polygon fill="none" stroke="#000000" points="84,-222.5 84,-257.5 382,-257.5 382,-222.5 84,-222.5"/>
<text text-anchor="start" x="90.6946" y="-235.3" font-family="Arial Bold" font-size="18.00" fill="#000000">md_resposta_envio</text>
<text text-anchor="start" x="247.7374" y="-235.3" font-family="Arial" font-size="14.00" fill="#000000">    </text>
<text text-anchor="start" x="281.9422" y="-235.3" font-family="Arial" font-size="14.00" fill="#666666">[BASE TABLE]</text>
<polygon fill="none" stroke="#000000" points="84,-192.5 84,-222.5 382,-222.5 382,-192.5 84,-192.5"/>
<text text-anchor="start" x="91" y="-203.9" font-family="Arial" font-size="14.00" fill="#000000">id_resposta    </text>
<text text-anchor="start" x="197.5582" y="-203.9" font-family="Arial" font-size="14.00" fill="#666666">[bigint(20)]</text>
<polygon fill="none" stroke="#000000" points="84,-162.5 84,-192.5 382,-192.5 382,-162.5 84,-162.5"/>
<text text-anchor="start" x="91" y="-173.9" font-family="Arial" font-size="14.00" fill="#000000">id_procedimento    </text>
<text text-anchor="start" x="228.6732" y="-173.9" font-family="Arial" font-size="14.00" fill="#666666">[bigint(20)]</text>
<polygon fill="none" stroke="#000000" points="84,-132.5 84,-162.5 382,-162.5 382,-132.5 84,-132.5"/>
<text text-anchor="start" x="91" y="-143.9" font-family="Arial" font-size="14.00" fill="#000000">id_documento    </text>
<text text-anchor="start" x="213.1234" y="-143.9" font-family="Arial" font-size="14.00" fill="#666666">[bigint(20)]</text>
<polygon fill="none" stroke="#000000" points="84,-102.5 84,-132.5 382,-132.5 382,-102.5 84,-102.5"/>
<text text-anchor="start" x="91" y="-113.9" font-family="Arial" font-size="14.00" fill="#000000">mensagem    </text>
<text text-anchor="start" x="194.439" y="-113.9" font-family="Arial" font-size="14.00" fill="#666666">[longtext]</text>
<polygon fill="none" stroke="#000000" points="84,-72.5 84,-102.5 382,-102.5 382,-72.5 84,-72.5"/>
<text text-anchor="start" x="91" y="-83.9" font-family="Arial" font-size="14.00" fill="#000000">sin_conclusiva    </text>
<text text-anchor="start" x="216.2202" y="-83.9" font-family="Arial" font-size="14.00" fill="#666666">[char(1)]</text>
<polygon fill="none" stroke="#000000" points="84,-42.5 84,-72.5 382,-72.5 382,-42.5 84,-42.5"/>
<text text-anchor="start" x="91" y="-53.9" font-family="Arial" font-size="14.00" fill="#000000">dth_resposta    </text>
<text text-anchor="start" x="206.1248" y="-53.9" font-family="Arial" font-size="14.00" fill="#666666">[datetime]</text>
</g>
<!-- md_resposta_rel_documento&#45;&gt;md_resposta_envio -->
<g id="edge1" class="edge">
<title>md_resposta_rel_documento:id_resposta&#45;&gt;md_resposta_envio:id_resposta</title>
<path fill="none" stroke="#000000" d="M430.222,-426.6591C516.3996,-411.8888 477.6403,-207.5 382,-207.5"/>
<polygon fill="#000000" stroke="#000000" points="429.9663,-426.68 419.631,-423.0152 424.9832,-427.09 420,-427.5 420,-427.5 420,-427.5 424.9832,-427.09 420.369,-431.9848 429.9663,-426.68 429.9663,-426.68"/>
</g>
</g>
</svg>
