<?xml version="1.0" encoding="UTF-8" standalone="no"?>
<!DOCTYPE svg PUBLIC "-//W3C//DTD SVG 1.1//EN"
 "http://www.w3.org/Graphics/SVG/1.1/DTD/svg11.dtd">
<!-- Generated by graphviz version 2.40.1 (20161225.0304)
 -->
<!-- Title: sei Pages: 1 -->
<svg width="1342pt" height="526pt"
 viewBox="0.00 0.00 1342.00 526.00" xmlns="http://www.w3.org/2000/svg" xmlns:xlink="http://www.w3.org/1999/xlink">
<g id="graph0" class="graph" transform="scale(1 1) rotate(0) translate(4 522)">
<title>sei</title>
<polygon fill="#ffffff" stroke="transparent" points="-4,4 -4,-522 1338,-522 1338,4 -4,4"/>
<!-- md_resposta_envio -->
<g id="node1" class="node">
<title>md_resposta_envio</title>
<polygon fill="#efefef" stroke="transparent" points="81,-222.5 81,-257.5 379,-257.5 379,-222.5 81,-222.5"/>
<polygon fill="none" stroke="#000000" points="81,-222.5 81,-257.5 379,-257.5 379,-222.5 81,-222.5"/>
<text text-anchor="start" x="87.6946" y="-235.3" font-family="Arial Bold" font-size="18.00" fill="#000000">md_resposta_envio</text>
<text text-anchor="start" x="244.7374" y="-235.3" font-family="Arial" font-size="14.00" fill="#000000">    </text>
<text text-anchor="start" x="278.9422" y="-235.3" font-family="Arial" font-size="14.00" fill="#666666">[BASE TABLE]</text>
<polygon fill="none" stroke="#000000" points="81,-192.5 81,-222.5 379,-222.5 379,-192.5 81,-192.5"/>
<text text-anchor="start" x="88" y="-203.9" font-family="Arial" font-size="14.00" fill="#000000">id_resposta    </text>
<text text-anchor="start" x="194.5582" y="-203.9" font-family="Arial" font-size="14.00" fill="#666666">[bigint(20)]</text>
<polygon fill="none" stroke="#000000" points="81,-162.5 81,-192.5 379,-192.5 379,-162.5 81,-162.5"/>
<text text-anchor="start" x="88" y="-173.9" font-family="Arial" font-size="14.00" fill="#000000">id_procedimento    </text>
<text text-anchor="start" x="225.6732" y="-173.9" font-family="Arial" font-size="14.00" fill="#666666">[bigint(20)]</text>
<polygon fill="none" stroke="#000000" points="81,-132.5 81,-162.5 379,-162.5 379,-132.5 81,-132.5"/>
<text text-anchor="start" x="88" y="-143.9" font-family="Arial" font-size="14.00" fill="#000000">id_documento    </text>
<text text-anchor="start" x="210.1234" y="-143.9" font-family="Arial" font-size="14.00" fill="#666666">[bigint(20)]</text>
<polygon fill="none" stroke="#000000" points="81,-102.5 81,-132.5 379,-132.5 379,-102.5 81,-102.5"/>
<text text-anchor="start" x="88" y="-113.9" font-family="Arial" font-size="14.00" fill="#000000">mensagem    </text>
<text text-anchor="start" x="191.439" y="-113.9" font-family="Arial" font-size="14.00" fill="#666666">[longtext]</text>
<polygon fill="none" stroke="#000000" points="81,-72.5 81,-102.5 379,-102.5 379,-72.5 81,-72.5"/>
<text text-anchor="start" x="88" y="-83.9" font-family="Arial" font-size="14.00" fill="#000000">sin_conclusiva    </text>
<text text-anchor="start" x="213.2202" y="-83.9" font-family="Arial" font-size="14.00" fill="#666666">[char(1)]</text>
<polygon fill="none" stroke="#000000" points="81,-42.5 81,-72.5 379,-72.5 379,-42.5 81,-42.5"/>
<text text-anchor="start" x="88" y="-53.9" font-family="Arial" font-size="14.00" fill="#000000">dth_resposta    </text>
<text text-anchor="start" x="203.1248" y="-53.9" font-family="Arial" font-size="14.00" fill="#666666">[datetime]</text>
</g>
<!-- md_resposta_parametro -->
<g id="node2" class="node">
<title>md_resposta_parametro</title>
<polygon fill="#efefef" stroke="transparent" points="522,-439.5 522,-474.5 859,-474.5 859,-439.5 522,-439.5"/>
<polygon fill="none" stroke="#000000" points="522,-439.5 522,-474.5 859,-474.5 859,-439.5 522,-439.5"/>
<text text-anchor="start" x="528.6961" y="-452.3" font-family="Arial Bold" font-size="18.00" fill="#000000">md_resposta_parametro</text>
<text text-anchor="start" x="724.7359" y="-452.3" font-family="Arial" font-size="14.00" fill="#000000">    </text>
<text text-anchor="start" x="758.9407" y="-452.3" font-family="Arial" font-size="14.00" fill="#666666">[BASE TABLE]</text>
<polygon fill="none" stroke="#000000" points="522,-409.5 522,-439.5 859,-439.5 859,-409.5 522,-409.5"/>
<text text-anchor="start" x="529" y="-420.9" font-family="Arial" font-size="14.00" fill="#000000">nome    </text>
<text text-anchor="start" x="598.2132" y="-420.9" font-family="Arial" font-size="14.00" fill="#666666">[varchar(100)]</text>
<polygon fill="none" stroke="#000000" points="522,-379.5 522,-409.5 859,-409.5 859,-379.5 522,-379.5"/>
<text text-anchor="start" x="529" y="-390.9" font-family="Arial" font-size="14.00" fill="#000000">valor    </text>
<text text-anchor="start" x="593.5372" y="-390.9" font-family="Arial" font-size="14.00" fill="#666666">[longtext]</text>
</g>
<!-- md_resposta_processo -->
<g id="node3" class="node">
<title>md_resposta_processo</title>
<polygon fill="#efefef" stroke="transparent" points="963,-424.5 963,-459.5 1291,-459.5 1291,-424.5 963,-424.5"/>
<polygon fill="none" stroke="#000000" points="963,-424.5 963,-459.5 1291,-459.5 1291,-424.5 963,-424.5"/>
<text text-anchor="start" x="969.6925" y="-437.3" font-family="Arial Bold" font-size="18.00" fill="#000000">md_resposta_processo</text>
<text text-anchor="start" x="1156.7395" y="-437.3" font-family="Arial" font-size="14.00" fill="#000000">    </text>
<text text-anchor="start" x="1190.9443" y="-437.3" font-family="Arial" font-size="14.00" fill="#666666">[BASE TABLE]</text>
<polygon fill="none" stroke="#000000" points="963,-394.5 963,-424.5 1291,-424.5 1291,-394.5 963,-394.5"/>
<text text-anchor="start" x="970" y="-405.9" font-family="Arial" font-size="14.00" fill="#000000">id_procedimento    </text>
<text text-anchor="start" x="1107.6732" y="-405.9" font-family="Arial" font-size="14.00" fill="#666666">[bigint(20)]</text>
</g>
<!-- md_resposta_rel_documento -->
<g id="node4" class="node">
<title>md_resposta_rel_documento</title>
<polygon fill="#efefef" stroke="transparent" points="43,-439.5 43,-474.5 417,-474.5 417,-439.5 43,-439.5"/>
<polygon fill="none" stroke="#000000" points="43,-439.5 43,-474.5 417,-474.5 417,-439.5 43,-439.5"/>
<text text-anchor="start" x="49.6858" y="-452.3" font-family="Arial Bold" font-size="18.00" fill="#000000">md_resposta_rel_documento</text>
<text text-anchor="start" x="282.7462" y="-452.3" font-family="Arial" font-size="14.00" fill="#000000">    </text>
<text text-anchor="start" x="316.951" y="-452.3" font-family="Arial" font-size="14.00" fill="#666666">[BASE TABLE]</text>
<polygon fill="none" stroke="#000000" points="43,-409.5 43,-439.5 417,-439.5 417,-409.5 43,-409.5"/>
<text text-anchor="start" x="50" y="-420.9" font-family="Arial" font-size="14.00" fill="#000000">id_resposta    </text>
<text text-anchor="start" x="156.5582" y="-420.9" font-family="Arial" font-size="14.00" fill="#666666">[bigint(20)]</text>
<polygon fill="none" stroke="#000000" points="43,-379.5 43,-409.5 417,-409.5 417,-379.5 43,-379.5"/>
<text text-anchor="start" x="50" y="-390.9" font-family="Arial" font-size="14.00" fill="#000000">id_documento    </text>
<text text-anchor="start" x="172.1234" y="-390.9" font-family="Arial" font-size="14.00" fill="#666666">[bigint(20)]</text>
</g>
<!-- md_resposta_rel_documento&#45;&gt;md_resposta_envio -->
<g id="edge1" class="edge">
<title>md_resposta_rel_documento:id_resposta&#45;&gt;md_resposta_envio:id_resposta</title>
<path fill="none" stroke="#000000" d="M426.4945,-421.0914C460.255,-393.4844 424.3226,-207.5 379,-207.5"/>
<polygon fill="#000000" stroke="#000000" points="426.4119,-421.121 415.4795,-420.2647 421.7059,-422.8105 417,-424.5 417,-424.5 417,-424.5 421.7059,-422.8105 418.5205,-428.7353 426.4119,-421.121 426.4119,-421.121"/>
</g>
</g>
</svg>
